<?xml version="1.0" standalone="no"?>
<svg viewBox="0 0 200 200" xmlns="http://www.w3.org/2000/svg">
  <path fill="#A7F0BA" d="M36,-59.2C48.4,-55.2,61.2,-49,67.8,-38.8C74.4,-28.5,74.7,-14.3,71.8,-1.7C68.9,10.9,62.9,21.9,57.2,33.6C51.5,45.4,46.2,58.1,36.7,67.9C27.2,77.8,13.6,84.8,-0.1,84.9C-13.8,85,-27.6,78.3,-38.3,69.2C-49.1,60.2,-56.8,48.7,-64.5,36.8C-72.1,24.8,-79.7,12.4,-81.2,-0.9C-82.7,-14.2,-78.2,-28.4,-70,-39.3C-61.7,-50.1,-49.7,-57.7,-37.4,-61.7C-25.1,-65.7,-12.6,-66.1,-0.4,-65.5C11.8,-64.8,23.6,-63.1,36,-59.2Z" transform="translate(100 100)" />
</svg>
