<svg id="visual" viewBox="0 0 900 600" width="900" height="600" xmlns="http://www.w3.org/2000/svg" xmlns:xlink="http://www.w3.org/1999/xlink" version="1.1"><g transform="translate(471.95304859185933 293.67688051869266)"><path d="M145.5 -230C188.2 -198.9 222.4 -158 248.8 -110.6C275.3 -63.1 294 -9.1 286.7 41.2C279.4 91.4 246 137.8 207.6 177.3C169.3 216.8 126.1 249.5 75.2 271.2C24.4 293 -34 303.8 -84.7 288.8C-135.4 273.8 -178.4 232.8 -218.9 188.4C-259.5 144 -297.5 96.1 -317.5 38.2C-337.4 -19.8 -339.3 -87.8 -309.4 -136.3C-279.5 -184.9 -217.9 -214 -161 -238.7C-104.2 -263.4 -52.1 -283.7 -0.4 -283.1C51.4 -282.6 102.7 -261.2 145.5 -230" fill="#FFFFFF"></path></g></svg>