<svg id="visual" viewBox="0 0 900 600" width="100%" height="100%" xmlns="http://www.w3.org/2000/svg" xmlns:xlink="http://www.w3.org/1999/xlink" version="1.1"><g transform="translate(474.1560922442849 265.6912411099678)"><path d="M134.7 -159.7C168.7 -132 186.3 -84 207.6 -27.1C228.9 29.7 253.9 95.4 240.1 156.8C226.3 218.2 173.7 275.4 116.5 278C59.3 280.5 -2.4 228.4 -76.7 204.2C-151 180 -237.9 183.7 -272.7 146.4C-307.4 109 -290.1 30.4 -267.5 -38.4C-244.9 -107.1 -216.9 -166.2 -171.5 -191.8C-126 -217.5 -63 -209.7 -6.3 -202.2C50.4 -194.7 100.7 -187.3 134.7 -159.7" fill="#dddddd"></path></g></svg>