<svg id="visual" viewBox="0 0 900 600" width="900" height="600" xmlns="http://www.w3.org/2000/svg" xmlns:xlink="http://www.w3.org/1999/xlink" version="1.1"><path d="M845 600L846.5 575C848 550 851 500 849.5 450C848 400 842 350 839 300C836 250 836 200 839 150C842 100 848 50 851 25L854 0L900 0L900 25C900 50 900 100 900 150C900 200 900 250 900 300C900 350 900 400 900 450C900 500 900 550 900 575L900 600Z" fill="#00bb67"></path><path d="M629 600L639.5 575C650 550 671 500 674 450C677 400 662 350 648.5 300C635 250 623 200 629 150C635 100 659 50 671 25L683 0L855 0L852 25C849 50 843 100 840 150C837 200 837 250 840 300C843 350 849 400 850.5 450C852 500 849 550 847.5 575L846 600Z" fill="#00ce71"></path><path d="M485 600L495.5 575C506 550 527 500 531.5 450C536 400 524 350 515 300C506 250 500 200 509 150C518 100 542 50 554 25L566 0L684 0L672 25C660 50 636 100 630 150C624 200 636 250 649.5 300C663 350 678 400 675 450C672 500 651 550 640.5 575L630 600Z" fill="#00e17b"></path><path d="M422 600L432.5 575C443 550 464 500 467 450C470 400 455 350 446 300C437 250 434 200 444.5 150C455 100 479 50 491 25L503 0L567 0L555 25C543 50 519 100 510 150C501 200 507 250 516 300C525 350 537 400 532.5 450C528 500 507 550 496.5 575L486 600Z" fill="#00f586"></path><path d="M233 600L233 575C233 550 233 500 237.5 450C242 400 251 350 252.5 300C254 250 248 200 246.5 150C245 100 248 50 249.5 25L251 0L504 0L492 25C480 50 456 100 445.5 150C435 200 438 250 447 300C456 350 471 400 468 450C465 500 444 550 433.5 575L423 600Z" fill="#28ff92"></path><path d="M143 600L144.5 575C146 550 149 500 156.5 450C164 400 176 350 179 300C182 250 176 200 174.5 150C173 100 176 50 177.5 25L179 0L252 0L250.5 25C249 50 246 100 247.5 150C249 200 255 250 253.5 300C252 350 243 400 238.5 450C234 500 234 550 234 575L234 600Z" fill="#49ff9f"></path><path d="M62 600L62 575C62 550 62 500 65 450C68 400 74 350 75.5 300C77 250 74 200 72.5 150C71 100 71 50 71 25L71 0L180 0L178.5 25C177 50 174 100 175.5 150C177 200 183 250 180 300C177 350 165 400 157.5 450C150 500 147 550 145.5 575L144 600Z" fill="#61ffab"></path><path d="M0 600L0 575C0 550 0 500 0 450C0 400 0 350 0 300C0 250 0 200 0 150C0 100 0 50 0 25L0 0L72 0L72 25C72 50 72 100 73.5 150C75 200 78 250 76.5 300C75 350 69 400 66 450C63 500 63 550 63 575L63 600Z" fill="#75ffb7"></path></svg>