<?xml version="1.0" standalone="no"?>
<svg xmlns:xlink="http://www.w3.org/1999/xlink" id="wave" style="transform:rotate(0deg); transition: 0.3s" viewBox="0 0 1440 490" version="1.1" xmlns="http://www.w3.org/2000/svg"><defs><linearGradient id="sw-gradient-0" x1="0" x2="0" y1="1" y2="0"><stop stop-color="rgba(63, 248, 0, 0.42)" offset="0%"/><stop stop-color="rgba(101.707, 212.061, 64.127, 0.76)" offset="100%"/></linearGradient></defs><path style="transform:translate(0, 0px); opacity:1" fill="url(#sw-gradient-0)" d="M0,294L120,302.2C240,310,480,327,720,285.8C960,245,1200,147,1440,138.8C1680,131,1920,212,2160,212.3C2400,212,2640,131,2880,155.2C3120,180,3360,310,3600,310.3C3840,310,4080,180,4320,122.5C4560,65,4800,82,5040,138.8C5280,196,5520,294,5760,326.7C6000,359,6240,327,6480,310.3C6720,294,6960,294,7200,302.2C7440,310,7680,327,7920,343C8160,359,8400,376,8640,351.2C8880,327,9120,261,9360,220.5C9600,180,9840,163,10080,204.2C10320,245,10560,343,10800,359.3C11040,376,11280,310,11520,253.2C11760,196,12000,147,12240,138.8C12480,131,12720,163,12960,220.5C13200,278,13440,359,13680,383.8C13920,408,14160,376,14400,343C14640,310,14880,278,15120,277.7C15360,278,15600,310,15840,334.8C16080,359,16320,376,16560,334.8C16800,294,17040,196,17160,147L17280,98L17280,490L17160,490C17040,490,16800,490,16560,490C16320,490,16080,490,15840,490C15600,490,15360,490,15120,490C14880,490,14640,490,14400,490C14160,490,13920,490,13680,490C13440,490,13200,490,12960,490C12720,490,12480,490,12240,490C12000,490,11760,490,11520,490C11280,490,11040,490,10800,490C10560,490,10320,490,10080,490C9840,490,9600,490,9360,490C9120,490,8880,490,8640,490C8400,490,8160,490,7920,490C7680,490,7440,490,7200,490C6960,490,6720,490,6480,490C6240,490,6000,490,5760,490C5520,490,5280,490,5040,490C4800,490,4560,490,4320,490C4080,490,3840,490,3600,490C3360,490,3120,490,2880,490C2640,490,2400,490,2160,490C1920,490,1680,490,1440,490C1200,490,960,490,720,490C480,490,240,490,120,490L0,490Z"/><defs><linearGradient id="sw-gradient-1" x1="0" x2="0" y1="1" y2="0"><stop stop-color="rgba(154.165, 234.829, 126.695, 0.89)" offset="0%"/><stop stop-color="rgba(125.458, 248.49, 83.561, 0.62)" offset="100%"/></linearGradient></defs><path style="transform:translate(0, 50px); opacity:0.9" fill="url(#sw-gradient-1)" d="M0,147L120,122.5C240,98,480,49,720,89.8C960,131,1200,261,1440,318.5C1680,376,1920,359,2160,302.2C2400,245,2640,147,2880,155.2C3120,163,3360,278,3600,294C3840,310,4080,229,4320,187.8C4560,147,4800,147,5040,187.8C5280,229,5520,310,5760,326.7C6000,343,6240,294,6480,236.8C6720,180,6960,114,7200,73.5C7440,33,7680,16,7920,24.5C8160,33,8400,65,8640,138.8C8880,212,9120,327,9360,375.7C9600,425,9840,408,10080,334.8C10320,261,10560,131,10800,130.7C11040,131,11280,261,11520,326.7C11760,392,12000,392,12240,367.5C12480,343,12720,294,12960,302.2C13200,310,13440,376,13680,351.2C13920,327,14160,212,14400,163.3C14640,114,14880,131,15120,171.5C15360,212,15600,278,15840,294C16080,310,16320,278,16560,294C16800,310,17040,376,17160,408.3L17280,441L17280,490L17160,490C17040,490,16800,490,16560,490C16320,490,16080,490,15840,490C15600,490,15360,490,15120,490C14880,490,14640,490,14400,490C14160,490,13920,490,13680,490C13440,490,13200,490,12960,490C12720,490,12480,490,12240,490C12000,490,11760,490,11520,490C11280,490,11040,490,10800,490C10560,490,10320,490,10080,490C9840,490,9600,490,9360,490C9120,490,8880,490,8640,490C8400,490,8160,490,7920,490C7680,490,7440,490,7200,490C6960,490,6720,490,6480,490C6240,490,6000,490,5760,490C5520,490,5280,490,5040,490C4800,490,4560,490,4320,490C4080,490,3840,490,3600,490C3360,490,3120,490,2880,490C2640,490,2400,490,2160,490C1920,490,1680,490,1440,490C1200,490,960,490,720,490C480,490,240,490,120,490L0,490Z"/><defs><linearGradient id="sw-gradient-2" x1="0" x2="0" y1="1" y2="0"><stop stop-color="rgba(150.224, 255, 114.543, 0.97)" offset="0%"/><stop stop-color="rgba(53.805, 134.651, 26.274, 0.86)" offset="100%"/></linearGradient></defs><path style="transform:translate(0, 100px); opacity:0.8" fill="url(#sw-gradient-2)" d="M0,98L120,147C240,196,480,294,720,326.7C960,359,1200,327,1440,277.7C1680,229,1920,163,2160,130.7C2400,98,2640,98,2880,81.7C3120,65,3360,33,3600,24.5C3840,16,4080,33,4320,40.8C4560,49,4800,49,5040,114.3C5280,180,5520,310,5760,343C6000,376,6240,310,6480,236.8C6720,163,6960,82,7200,40.8C7440,0,7680,0,7920,57.2C8160,114,8400,229,8640,302.2C8880,376,9120,408,9360,400.2C9600,392,9840,343,10080,269.5C10320,196,10560,98,10800,57.2C11040,16,11280,33,11520,32.7C11760,33,12000,16,12240,81.7C12480,147,12720,294,12960,318.5C13200,343,13440,245,13680,204.2C13920,163,14160,180,14400,179.7C14640,180,14880,163,15120,204.2C15360,245,15600,343,15840,326.7C16080,310,16320,180,16560,138.8C16800,98,17040,147,17160,171.5L17280,196L17280,490L17160,490C17040,490,16800,490,16560,490C16320,490,16080,490,15840,490C15600,490,15360,490,15120,490C14880,490,14640,490,14400,490C14160,490,13920,490,13680,490C13440,490,13200,490,12960,490C12720,490,12480,490,12240,490C12000,490,11760,490,11520,490C11280,490,11040,490,10800,490C10560,490,10320,490,10080,490C9840,490,9600,490,9360,490C9120,490,8880,490,8640,490C8400,490,8160,490,7920,490C7680,490,7440,490,7200,490C6960,490,6720,490,6480,490C6240,490,6000,490,5760,490C5520,490,5280,490,5040,490C4800,490,4560,490,4320,490C4080,490,3840,490,3600,490C3360,490,3120,490,2880,490C2640,490,2400,490,2160,490C1920,490,1680,490,1440,490C1200,490,960,490,720,490C480,490,240,490,120,490L0,490Z"/><defs><linearGradient id="sw-gradient-3" x1="0" x2="0" y1="1" y2="0"><stop stop-color="rgba(82.858, 218.892, 36.533, 0.68)" offset="0%"/><stop stop-color="rgba(63, 248, 0, 0.86)" offset="100%"/></linearGradient></defs><path style="transform:translate(0, 150px); opacity:0.7" fill="url(#sw-gradient-3)" d="M0,245L120,245C240,245,480,245,720,236.8C960,229,1200,212,1440,171.5C1680,131,1920,65,2160,81.7C2400,98,2640,196,2880,228.7C3120,261,3360,229,3600,245C3840,261,4080,327,4320,359.3C4560,392,4800,392,5040,392C5280,392,5520,392,5760,343C6000,294,6240,196,6480,147C6720,98,6960,98,7200,89.8C7440,82,7680,65,7920,106.2C8160,147,8400,245,8640,302.2C8880,359,9120,376,9360,351.2C9600,327,9840,261,10080,253.2C10320,245,10560,294,10800,294C11040,294,11280,245,11520,253.2C11760,261,12000,327,12240,334.8C12480,343,12720,294,12960,236.8C13200,180,13440,114,13680,81.7C13920,49,14160,49,14400,40.8C14640,33,14880,16,15120,24.5C15360,33,15600,65,15840,65.3C16080,65,16320,33,16560,81.7C16800,131,17040,261,17160,326.7L17280,392L17280,490L17160,490C17040,490,16800,490,16560,490C16320,490,16080,490,15840,490C15600,490,15360,490,15120,490C14880,490,14640,490,14400,490C14160,490,13920,490,13680,490C13440,490,13200,490,12960,490C12720,490,12480,490,12240,490C12000,490,11760,490,11520,490C11280,490,11040,490,10800,490C10560,490,10320,490,10080,490C9840,490,9600,490,9360,490C9120,490,8880,490,8640,490C8400,490,8160,490,7920,490C7680,490,7440,490,7200,490C6960,490,6720,490,6480,490C6240,490,6000,490,5760,490C5520,490,5280,490,5040,490C4800,490,4560,490,4320,490C4080,490,3840,490,3600,490C3360,490,3120,490,2880,490C2640,490,2400,490,2160,490C1920,490,1680,490,1440,490C1200,490,960,490,720,490C480,490,240,490,120,490L0,490Z"/></svg>